# xmcd
#
# Track frame offsets:
#	150
#	22632
#	38482
#	53220
#	65435
#	76940
#	85637
#	100077
#	115347
#	131005
#	153757
#	167965
#	180202
#	193982
#	211375
#
# Disc length: 3054 seconds
#
# Revision: 2
# Processed by: cddbd v1.5.2PL0 Copyright (c) Steve Scherf et al.
# Submitted via: EasyCDDAExtractor 11.5.3.1
#
DISCID=b30bec0f
DTITLE=Leif Kerstein and Winchesters - Almost Live
DYEAR=1997
DGENRE=Country
TTITLE0=Okie From Muskogee
TTITLE1=Have I Yold You Lately
TTITLE2=Forever and Ever Amen
TTITLE3=Some Broken Hearts Newer Mend
TTITLE4=On The Road Again
TTITLE5=From  a  Jack To a King
TTITLE6=Help Me Make It Through The Night
TTITLE7=She's Not Cryin' Anymore
TTITLE8=Folsom Prison Blues
TTITLE9=Hank Medley
TTITLE10=Winchester # 1
TTITLE11=Make The World Go Away
TTITLE12=Truck Drivin Man
TTITLE13=Good Hearted Woman
TTITLE14=Bobby McGee
EXTD=
EXTT0=
EXTT1=
EXTT2=
EXTT3=
EXTT4=
EXTT5=
EXTT6=
EXTT7=
EXTT8=
EXTT9=
EXTT10=
EXTT11=
EXTT12=
EXTT13=
EXTT14=
PLAYORDER=
